<svg id="e2tP7S9WhxE1" xmlns="http://www.w3.org/2000/svg" xmlns:xlink="http://www.w3.org/1999/xlink" viewBox="0 0 1500 231.88613" shape-rendering="geometricPrecision" text-rendering="geometricPrecision" project-id="10b0328ae8514027a6473b959a7fc2d8" export-id="6d92564834864aec905fffa0e2fa87aa" cached="false"><g transform="translate(76.042725 0.000006)"><g><g><path d="M411.82265,144.24169c.008196,18.795991-10.014639,36.16771-26.29108,45.568072s-36.332209,9.400362-52.60865,0-26.299276-26.772081-26.29108-45.568072v-76.34421h-35.049v76.34421c-.00197,35.342468,21.219513,67.229428,53.8225,80.87257c1.59137.66592,3.19809,1.2775,4.81742,1.84615c26.814072,9.397469,56.519787,5.215337,79.696953-11.22017s36.950427-43.085403,36.952047-71.49855v-76.34421h-35.049l-.00011,76.34421Z" fill="#ff6a48"/><path d="M622.69077,144.24169c-.044015,27.562697-21.347614,50.421921-48.8389,52.4052-1.24639.0886-2.48885.1902-3.7569.1902-13.953332.013478-27.339051-5.523466-37.205588-15.389929s-15.403584-23.252139-15.390212-37.205471v-76.34421h-35.04982v76.34421c-.000779,35.34234,21.220697,67.228821,53.82329,80.87257c1.591.66592,3.19809,1.2775,4.817,1.84615c9.319606,3.273105,19.127653,4.938721,29.00531,4.92572q1.88376,0,3.7569-.07877c46.900216-2.013989,83.886577-40.622232,83.88715-87.56567v-76.34421h-35.04823v76.34421Z" fill="#ff6a48"/><path d="M787.21906,185.21158L781.12149,201.015c-.851561,2.207045-2.97335,3.662635-5.338979,3.662649s-4.487435-1.455554-5.339021-3.662589l-6.0978-15.80343L720.38564,67.89748h-37.43037l48.59749,129.689l11.33489,29.37391h65.791L819.95016,197.746l.03111-.07955l48.627-129.769h-37.42916L787.21906,185.21158Z" fill="#ff6a48"/><path d="M1082.88206,189.44574L1063.881,206.25937c-1.205824,1.067051-2.925237,1.327986-4.393346.666725s-2.412121-2.121847-2.412084-3.732005v-132.29661h-31.04845v13.87852c-.005415,2.021373-1.234,3.838291-3.107912,4.596203s-4.020153.305954-5.429278-1.143303l-.09521-.09537c-15.654844-15.733595-36.950783-24.554526-59.14576-24.4986-.06813,0-.13527.00394-.20359.00394-.06971,0-.13665-.00394-.20636-.00394-24.978874-.055147-48.663746,11.103501-64.52553,30.3999-17.635276,21.410264-23.521721,50.165054-15.71837,76.782907s28.283395,47.642981,54.68714,56.142663c8.262729,2.634628,16.884167,3.971478,25.55676,3.96286.06971,0,.13665-.00433.20636-.00433.06832,0,.13546.00433.20359.00433c22.193767.049805,43.487443-8.770189,59.14576-24.4986l.09521-.09537c1.409125-1.449257,3.555365-1.901214,5.429278-1.143303s3.102497,2.57483,3.107912,4.596203v17.17821h71.18485c12.064293-.00026,21.844155-9.780457,21.844-21.84475v0c.026922-5.710292-2.206765-11.199253-6.21326-15.26818-5.024084-5.019306-12.213171-7.215298-19.18442-5.86011-4.021925.804738-7.747906,2.692023-10.77623,5.45838ZM958.0454,199.69963c-21.221936.088081-40.403238-12.627941-48.585582-32.209248s-3.7512-42.164143,11.223935-57.201553s37.539388-19.56223,57.154482-11.461217s32.410607,27.229379,32.410595,48.451498c-.033573,28.852507-23.351311,52.267212-52.20343,52.42052Z" fill="#ff6a48"/><path d="M63.96137,226.96041v.00827h35.04824v-72.809c.012431-17.872674,9.095124-34.517415,24.118458-44.198947s33.933574-11.076362,50.214822-3.703873c19.03347,8.6416,30.85735,28.0695,30.85757,48.97286l.00075,71.7307h35.049v-72.794c.020625-23.251272-9.206855-45.556143-25.648104-61.99717s-38.746244-25.668208-61.997516-25.64727c-5.221636-.000783-10.433142.459525-15.5738,1.37556-13.439538,2.391752-26.124222,7.923753-37.02118,16.14555v-84.04309L23.07,0C10.81537,0,0.10608,10.01408,0.00087,22.2683c-.08749,6.455392,2.632222,12.630718,7.45366,16.92414c4.940881,4.345721,11.574562,6.238267,18.06466,5.15373c4.327421-.756621,8.355487-2.712999,11.62566-5.64643l20.0414-17.38536c1.210758-1.050345,2.923192-1.297298,4.381389-.631848s2.393769,2.120828,2.393731,3.723688v202.55419Z" transform="translate(0.001587 -0.008285)" fill="#ff6a48"/></g></g></g></svg>
